<svg width="30" height="30" viewBox="0 0 20 20" fill="none" xmlns="http://www.w3.org/2000/svg"><g clip-path="url(#clip0_1_487)"><path d="M19.367 18.102L18 14H16.5L17.333 18H2.667L3.5 14H2L0.632004 18.102C0.285004 19.146 0.900004 20 2 20H18C19.1 20 19.715 19.146 19.367 18.102ZM15 5C15 3.67392 14.4732 2.40215 13.5355 1.46447C12.5979 0.526784 11.3261 0 10 0C8.67392 0 7.40215 0.526784 6.46447 1.46447C5.52679 2.40215 5 3.67392 5 5C5 9.775 10 15 10 15C10 15 15 9.775 15 5ZM7.3 5.06C7.3 4.70548 7.36985 4.35443 7.50555 4.02691C7.64125 3.69938 7.84015 3.4018 8.09088 3.15117C8.34161 2.90053 8.63926 2.70174 8.96684 2.56616C9.29441 2.43058 9.64548 2.36087 10 2.361C10.716 2.361 11.4026 2.64541 11.9088 3.15167C12.4151 3.65792 12.6995 4.34455 12.6995 5.0605C12.6995 5.77645 12.4151 6.46308 11.9088 6.96933C11.4026 7.47559 10.716 7.76 10 7.76C9.28392 7.76 8.59716 7.47554 8.09082 6.96919C7.58447 6.46284 7.3 5.77608 7.3 5.06Z" fill="black"/></g><defs><clipPath id="clip0_1_487"><rect width="20" height="20" fill="white"/></clipPath></defs></svg>
